<svg width="815" height="231" viewBox="0 0 815 231" fill="none" xmlns="http://www.w3.org/2000/svg">
<rect width="815" height="231" fill="white"/>
<g filter="url(#filter0_d)">
<path d="M46.1406 165V62.625H77.6406C86.6406 62.625 94.6797 64.6641 101.758 68.7422C108.883 72.7734 114.438 78.5391 118.422 86.0391C122.406 93.4922 124.398 101.977 124.398 111.492V116.203C124.398 125.719 122.43 134.18 118.492 141.586C114.602 148.992 109.094 154.734 101.969 158.812C94.8438 162.891 86.8047 164.953 77.8516 165H46.1406ZM67.2344 79.7109V148.055H77.4297C85.6797 148.055 91.9844 145.359 96.3438 139.969C100.703 134.578 102.93 126.867 103.023 116.836V111.422C103.023 101.016 100.867 93.1406 96.5547 87.7969C92.2422 82.4062 85.9375 79.7109 77.6406 79.7109H67.2344ZM135.648 137.438C135.648 132.703 136.961 128.32 139.586 124.289C142.258 120.258 147.133 115.781 154.211 110.859C151.164 106.781 148.773 102.961 147.039 99.3984C145.305 95.7891 144.438 92.0391 144.438 88.1484C144.438 80.1797 146.945 73.7109 151.961 68.7422C157.023 63.7266 163.82 61.2188 172.352 61.2188C179.992 61.2188 186.25 63.4922 191.125 68.0391C196.047 72.5859 198.508 78.2578 198.508 85.0547C198.508 93.2109 194.383 100.406 186.133 106.641L178.258 112.336L195.906 132.867C198.672 127.43 200.055 121.43 200.055 114.867H217.352C217.352 128.18 214.281 138.961 208.141 147.211L223.469 165H200.406L195.133 158.953C187.586 163.922 178.914 166.406 169.117 166.406C158.992 166.406 150.883 163.758 144.789 158.461C138.695 153.117 135.648 146.109 135.648 137.438ZM170.102 150.094C174.977 150.094 179.594 148.734 183.953 146.016L163.773 122.672L162.297 123.727C158.125 127.289 156.039 131.484 156.039 136.312C156.039 140.391 157.328 143.719 159.906 146.297C162.531 148.828 165.93 150.094 170.102 150.094ZM162.648 87.8672C162.648 91.3828 164.711 95.8125 168.836 101.156L174.25 97.5703C177.016 95.7891 178.914 94.0547 179.945 92.3672C181.023 90.6797 181.562 88.6641 181.562 86.3203C181.562 83.9766 180.695 81.9375 178.961 80.2031C177.227 78.4688 175 77.6016 172.281 77.6016C169.375 77.6016 167.031 78.5391 165.25 80.4141C163.516 82.2891 162.648 84.7734 162.648 87.8672ZM266.359 123.938L255.391 135.75V165H234.297V62.625H255.391V109.031L264.672 96.3047L290.758 62.625H316.703L280.352 108.117L317.758 165H292.656L266.359 123.938ZM361.562 165V62.625H393.062C402.062 62.625 410.102 64.6641 417.18 68.7422C424.305 72.7734 429.859 78.5391 433.844 86.0391C437.828 93.4922 439.82 101.977 439.82 111.492V116.203C439.82 125.719 437.852 134.18 433.914 141.586C430.023 148.992 424.516 154.734 417.391 158.812C410.266 162.891 402.227 164.953 393.273 165H361.562ZM382.656 79.7109V148.055H392.852C401.102 148.055 407.406 145.359 411.766 139.969C416.125 134.578 418.352 126.867 418.445 116.836V111.422C418.445 101.016 416.289 93.1406 411.977 87.7969C407.664 82.4062 401.359 79.7109 393.062 79.7109H382.656ZM496.633 107.977C493.867 107.602 491.43 107.414 489.32 107.414C481.633 107.414 476.594 110.016 474.203 115.219V165H453.883V88.9219H473.078L473.641 97.9922C477.719 91.0078 483.367 87.5156 490.586 87.5156C492.836 87.5156 494.945 87.8203 496.914 88.4297L496.633 107.977ZM540.086 166.406C528.93 166.406 519.836 162.984 512.805 156.141C505.82 149.297 502.328 140.18 502.328 128.789V126.82C502.328 119.18 503.805 112.359 506.758 106.359C509.711 100.312 513.883 95.6719 519.273 92.4375C524.711 89.1562 530.898 87.5156 537.836 87.5156C548.242 87.5156 556.422 90.7969 562.375 97.3594C568.375 103.922 571.375 113.227 571.375 125.273V133.57H522.93C523.586 138.539 525.555 142.523 528.836 145.523C532.164 148.523 536.359 150.023 541.422 150.023C549.25 150.023 555.367 147.188 559.773 141.516L569.758 152.695C566.711 157.008 562.586 160.383 557.383 162.82C552.18 165.211 546.414 166.406 540.086 166.406ZM537.766 103.969C533.734 103.969 530.453 105.328 527.922 108.047C525.438 110.766 523.844 114.656 523.141 119.719H551.406V118.102C551.312 113.602 550.094 110.133 547.75 107.695C545.406 105.211 542.078 103.969 537.766 103.969ZM627.062 165C626.125 163.172 625.445 160.898 625.023 158.18C620.102 163.664 613.703 166.406 605.828 166.406C598.375 166.406 592.188 164.25 587.266 159.938C582.391 155.625 579.953 150.188 579.953 143.625C579.953 135.562 582.93 129.375 588.883 125.062C594.883 120.75 603.531 118.57 614.828 118.523H624.18V114.164C624.18 110.648 623.266 107.836 621.438 105.727C619.656 103.617 616.82 102.562 612.93 102.562C609.508 102.562 606.812 103.383 604.844 105.023C602.922 106.664 601.961 108.914 601.961 111.773H581.641C581.641 107.367 583 103.289 585.719 99.5391C588.438 95.7891 592.281 92.8594 597.25 90.75C602.219 88.5938 607.797 87.5156 613.984 87.5156C623.359 87.5156 630.789 89.8828 636.273 94.6172C641.805 99.3047 644.57 105.914 644.57 114.445V147.422C644.617 154.641 645.625 160.102 647.594 163.805V165H627.062ZM610.258 150.867C613.258 150.867 616.023 150.211 618.555 148.898C621.086 147.539 622.961 145.734 624.18 143.484V130.406H616.586C606.414 130.406 601 133.922 600.344 140.953L600.273 142.148C600.273 144.68 601.164 146.766 602.945 148.406C604.727 150.047 607.164 150.867 610.258 150.867ZM679.234 88.9219L679.867 97.4297C685.258 90.8203 692.547 87.5156 701.734 87.5156C711.531 87.5156 718.258 91.3828 721.914 99.1172C727.258 91.3828 734.875 87.5156 744.766 87.5156C753.016 87.5156 759.156 89.9297 763.188 94.7578C767.219 99.5391 769.234 106.758 769.234 116.414V165H748.844V116.484C748.844 112.172 748 109.031 746.312 107.062C744.625 105.047 741.648 104.039 737.383 104.039C731.289 104.039 727.07 106.945 724.727 112.758L724.797 165H704.477V116.555C704.477 112.148 703.609 108.961 701.875 106.992C700.141 105.023 697.188 104.039 693.016 104.039C687.25 104.039 683.078 106.43 680.5 111.211V165H660.18V88.9219H679.234Z" fill="#486BE4"/>
</g>
<g style="mix-blend-mode:multiply" opacity="0.35">
<g style="mix-blend-mode:color-burn" opacity="0.25">
<path d="M271.5 23C297.567 23 323.366 25.4089 347.348 30.0822C371.329 34.7555 392.999 41.5968 411.056 50.1954C429.113 58.794 443.185 68.9727 452.428 80.1204C461.671 91.2681 465.894 103.155 464.843 115.068C463.792 126.98 457.489 138.673 446.313 149.444C435.136 160.215 419.317 169.842 399.804 177.747C380.291 185.653 357.487 191.673 332.76 195.448C308.034 199.222 281.894 200.673 255.912 199.712L263.775 155.217C276.651 155.693 289.606 154.974 301.86 153.103C314.114 151.233 325.415 148.249 335.086 144.331C344.756 140.414 352.596 135.642 358.135 130.305C363.674 124.967 366.797 119.172 367.318 113.268C367.839 107.364 365.746 101.473 361.166 95.9487C356.585 90.424 349.611 85.3796 340.662 81.1183C331.713 76.8569 320.974 73.4665 309.089 71.1504C297.204 68.8344 284.419 67.6406 271.5 67.6406L271.5 23Z" fill="#023EDA"/>
</g>
<g style="mix-blend-mode:color-burn" opacity="0.25">
<path d="M155 23H263V112.848L244.892 200H155L216.437 112.848L155 23Z" fill="#023EDA"/>
</g>
<g style="mix-blend-mode:color-burn" opacity="0.25">
<path d="M341 23L447.26 26.5939L502 70.6193L609.548 26.5939H663L536.132 106.558L663 200H559.96L536.132 169.003L447.26 200H353.88L401.536 182.48L411.196 178.437L420.212 173.944L428.584 169.003L436.956 163.162L443.396 158.67L449.836 152.83L454.988 146.99L459.496 141.15L464.648 132.614L469.156 122.282L471.732 114.645V106.558L469.156 97.1244L464.648 84.9949L455.632 74.6624L447.26 65.2284L432.448 53.9975L416.348 45.0127L398.96 37.8249L381.572 31.9848L341 23Z" fill="#023EDA"/>
</g>
</g>
<defs>
<filter id="filter0_d" x="42.1406" y="61.2188" width="731.094" height="113.188" filterUnits="userSpaceOnUse" color-interpolation-filters="sRGB">
<feFlood flood-opacity="0" result="BackgroundImageFix"/>
<feColorMatrix in="SourceAlpha" type="matrix" values="0 0 0 0 0 0 0 0 0 0 0 0 0 0 0 0 0 0 127 0" result="hardAlpha"/>
<feOffset dy="4"/>
<feGaussianBlur stdDeviation="2"/>
<feComposite in2="hardAlpha" operator="out"/>
<feColorMatrix type="matrix" values="0 0 0 0 0 0 0 0 0 0 0 0 0 0 0 0 0 0 0.25 0"/>
<feBlend mode="normal" in2="BackgroundImageFix" result="effect1_dropShadow"/>
<feBlend mode="normal" in="SourceGraphic" in2="effect1_dropShadow" result="shape"/>
</filter>
</defs>
</svg>
