<svg width="200" height="70" viewBox="0 0 200 70" fill="none" xmlns="http://www.w3.org/2000/svg">
<rect width="200" height="70" fill="white"/>
<g style="mix-blend-mode:multiply" opacity="0.35">
<g style="mix-blend-mode:color-burn" opacity="0.25">
<path d="M56.8923 2C64.5566 2 72.1419 2.89825 79.1928 4.64083C86.2438 6.38341 92.615 8.9344 97.9241 12.1407C103.233 15.3469 107.371 19.1423 110.088 23.2991C112.806 27.4559 114.047 31.8883 113.738 36.3303C113.429 40.7723 111.576 45.1323 108.29 49.1486C105.004 53.1649 100.353 56.7546 94.6159 59.7024C88.8787 62.6501 82.1739 64.8951 74.9038 66.3026C67.6338 67.71 59.9484 68.2509 52.309 67.8927L54.6209 51.3012C58.4069 51.4787 62.2156 51.2106 65.8186 50.5131C69.4215 49.8156 72.7443 48.703 75.5876 47.2422C78.4309 45.7813 80.7359 44.0023 82.3644 42.0119C83.993 40.0214 84.9113 37.8607 85.0645 35.6593C85.2176 33.4579 84.6023 31.2612 83.2555 29.2012C81.9087 27.1412 79.8582 25.2602 77.2271 23.6712C74.596 22.0822 71.4385 20.818 67.9441 19.9544C64.4498 19.0908 60.6906 18.6456 56.8923 18.6456L56.8923 2Z" fill="#023EDA"/>
</g>
<g style="mix-blend-mode:color-burn" opacity="0.25">
<path d="M22.6393 2H54.3931V35.5025L49.0691 68H22.6393L40.7028 35.5025L22.6393 2Z" fill="#023EDA"/>
</g>
<g style="mix-blend-mode:color-burn" opacity="0.25">
<path d="M77.3265 2L108.569 3.3401L124.663 19.7563L156.284 3.3401H172L134.699 33.1574L172 68H141.705L134.699 56.4416L108.569 68H81.1135L95.1252 61.467L97.9654 59.9594L100.616 58.2843L103.078 56.4416L105.539 54.264L107.433 52.5888L109.326 50.4112L110.841 48.2335L112.166 46.0558L113.681 42.8731L115.007 39.0203L115.764 36.1726V33.1574L115.007 29.6396L113.681 25.1168L111.03 21.264L108.569 17.7462L104.214 13.5584L99.4801 10.2081L94.3678 7.52792L89.2554 5.35025L77.3265 2Z" fill="#023EDA"/>
</g>
</g>
<g filter="url(#filter0_d)">
<path d="M14.1582 45V20.8281H21.5957C23.7207 20.8281 25.6188 21.3096 27.29 22.2725C28.9723 23.2243 30.2839 24.5856 31.2246 26.3564C32.1654 28.1162 32.6357 30.1195 32.6357 32.3662V33.4785C32.6357 35.7253 32.1709 37.723 31.2412 39.4717C30.3226 41.2204 29.0221 42.5762 27.3398 43.5391C25.6576 44.502 23.7594 44.9889 21.6455 45H14.1582ZM19.1387 24.8623V40.999H21.5459C23.4938 40.999 24.9824 40.3626 26.0117 39.0898C27.041 37.8171 27.5667 35.9964 27.5889 33.6279V32.3496C27.5889 29.8926 27.0798 28.0332 26.0615 26.7715C25.0433 25.4987 23.5547 24.8623 21.5957 24.8623H19.1387ZM35.292 38.4922C35.292 37.3743 35.6019 36.3395 36.2217 35.3877C36.8525 34.4359 38.0036 33.3789 39.6748 32.2168C38.9554 31.2539 38.391 30.3519 37.9814 29.5107C37.5719 28.6585 37.3672 27.7731 37.3672 26.8545C37.3672 24.973 37.9593 23.4456 39.1436 22.2725C40.3389 21.0882 41.9437 20.4961 43.958 20.4961C45.762 20.4961 47.2396 21.0329 48.3906 22.1064C49.5527 23.18 50.1338 24.5192 50.1338 26.124C50.1338 28.0498 49.1598 29.7487 47.2119 31.2207L45.3525 32.5654L49.5195 37.4131C50.1725 36.1292 50.499 34.7126 50.499 33.1631H54.583C54.583 36.3063 53.8581 38.8519 52.4082 40.7998L56.0273 45H50.582L49.3369 43.5723C47.555 44.7454 45.5075 45.332 43.1943 45.332C40.8037 45.332 38.889 44.7067 37.4502 43.4561C36.0114 42.1943 35.292 40.5397 35.292 38.4922ZM43.4268 41.4805C44.5778 41.4805 45.668 41.1595 46.6973 40.5176L41.9326 35.0059L41.584 35.2549C40.599 36.096 40.1064 37.0866 40.1064 38.2266C40.1064 39.1895 40.4108 39.9753 41.0195 40.584C41.6393 41.1816 42.4417 41.4805 43.4268 41.4805ZM41.667 26.7881C41.667 27.6182 42.154 28.6641 43.1279 29.9258L44.4062 29.0791C45.0592 28.6585 45.5075 28.249 45.751 27.8506C46.0055 27.4521 46.1328 26.9762 46.1328 26.4229C46.1328 25.8695 45.9281 25.388 45.5186 24.9785C45.109 24.569 44.5833 24.3643 43.9414 24.3643C43.2552 24.3643 42.7018 24.5856 42.2812 25.0283C41.8717 25.471 41.667 26.0576 41.667 26.7881ZM66.1543 35.3047L63.5645 38.0938V45H58.584V20.8281H63.5645V31.7852L65.7559 28.7803L71.915 20.8281H78.041L69.458 31.5693L78.29 45H72.3633L66.1543 35.3047ZM88.6328 45V20.8281H96.0703C98.1953 20.8281 100.093 21.3096 101.765 22.2725C103.447 23.2243 104.758 24.5856 105.699 26.3564C106.64 28.1162 107.11 30.1195 107.11 32.3662V33.4785C107.11 35.7253 106.646 37.723 105.716 39.4717C104.797 41.2204 103.497 42.5762 101.814 43.5391C100.132 44.502 98.234 44.9889 96.1201 45H88.6328ZM93.6133 24.8623V40.999H96.0205C97.9684 40.999 99.457 40.3626 100.486 39.0898C101.516 37.8171 102.041 35.9964 102.063 33.6279V32.3496C102.063 29.8926 101.554 28.0332 100.536 26.7715C99.5179 25.4987 98.0293 24.8623 96.0703 24.8623H93.6133ZM120.524 31.5361C119.871 31.4476 119.296 31.4033 118.798 31.4033C116.983 31.4033 115.793 32.0176 115.229 33.2461V45H110.431V27.0371H114.963L115.096 29.1787C116.059 27.5296 117.392 26.7051 119.097 26.7051C119.628 26.7051 120.126 26.777 120.591 26.9209L120.524 31.5361ZM130.784 45.332C128.15 45.332 126.003 44.5241 124.343 42.9082C122.694 41.2923 121.869 39.1396 121.869 36.4502V35.9854C121.869 34.1813 122.218 32.571 122.915 31.1543C123.612 29.7266 124.597 28.6309 125.87 27.8672C127.154 27.0924 128.615 26.7051 130.253 26.7051C132.71 26.7051 134.641 27.4798 136.047 29.0293C137.464 30.5788 138.172 32.7757 138.172 35.6201V37.5791H126.733C126.888 38.7523 127.353 39.693 128.128 40.4014C128.914 41.1097 129.904 41.4639 131.1 41.4639C132.948 41.4639 134.392 40.7943 135.433 39.4551L137.79 42.0947C137.071 43.113 136.097 43.9098 134.868 44.4854C133.64 45.0498 132.278 45.332 130.784 45.332ZM130.236 30.5898C129.285 30.5898 128.51 30.9108 127.912 31.5527C127.326 32.1947 126.949 33.1133 126.783 34.3086H133.457V33.9268C133.435 32.8643 133.147 32.0452 132.594 31.4697C132.04 30.8831 131.255 30.5898 130.236 30.5898ZM151.32 45C151.099 44.5684 150.938 44.0316 150.839 43.3896C149.677 44.6846 148.166 45.332 146.307 45.332C144.547 45.332 143.086 44.8229 141.924 43.8047C140.773 42.7865 140.197 41.5026 140.197 39.9531C140.197 38.0495 140.9 36.5885 142.306 35.5703C143.722 34.5521 145.764 34.0374 148.432 34.0264H150.64V32.9971C150.64 32.167 150.424 31.5029 149.992 31.0049C149.572 30.5068 148.902 30.2578 147.983 30.2578C147.175 30.2578 146.539 30.4515 146.074 30.8389C145.62 31.2262 145.394 31.7575 145.394 32.4326H140.596C140.596 31.3923 140.917 30.4294 141.559 29.5439C142.201 28.6585 143.108 27.9668 144.281 27.4688C145.454 26.9596 146.771 26.7051 148.232 26.7051C150.446 26.7051 152.2 27.264 153.495 28.3818C154.801 29.4886 155.454 31.0492 155.454 33.0635V40.8496C155.465 42.554 155.703 43.8434 156.168 44.7178V45H151.32ZM147.353 41.6631C148.061 41.6631 148.714 41.5081 149.312 41.1982C149.909 40.8773 150.352 40.4512 150.64 39.9199V36.832H148.847C146.445 36.832 145.167 37.6621 145.012 39.3223L144.995 39.6045C144.995 40.2021 145.205 40.6947 145.626 41.082C146.047 41.4694 146.622 41.6631 147.353 41.6631ZM163.639 27.0371L163.788 29.0459C165.061 27.4854 166.782 26.7051 168.951 26.7051C171.264 26.7051 172.853 27.6182 173.716 29.4443C174.978 27.6182 176.776 26.7051 179.111 26.7051C181.059 26.7051 182.509 27.2751 183.461 28.415C184.413 29.5439 184.889 31.2484 184.889 33.5283V45H180.074V33.5449C180.074 32.5267 179.875 31.7852 179.477 31.3203C179.078 30.8444 178.375 30.6064 177.368 30.6064C175.929 30.6064 174.933 31.2926 174.38 32.665L174.396 45H169.599V33.5615C169.599 32.5212 169.394 31.7686 168.984 31.3037C168.575 30.8389 167.878 30.6064 166.893 30.6064C165.531 30.6064 164.546 31.1709 163.938 32.2998V45H159.14V27.0371H163.639Z" fill="#486BE4"/>
</g>
<defs>
<filter id="filter0_d" x="10.1582" y="20.4961" width="178.73" height="32.8359" filterUnits="userSpaceOnUse" color-interpolation-filters="sRGB">
<feFlood flood-opacity="0" result="BackgroundImageFix"/>
<feColorMatrix in="SourceAlpha" type="matrix" values="0 0 0 0 0 0 0 0 0 0 0 0 0 0 0 0 0 0 127 0" result="hardAlpha"/>
<feOffset dy="4"/>
<feGaussianBlur stdDeviation="2"/>
<feComposite in2="hardAlpha" operator="out"/>
<feColorMatrix type="matrix" values="0 0 0 0 0 0 0 0 0 0 0 0 0 0 0 0 0 0 0.25 0"/>
<feBlend mode="normal" in2="BackgroundImageFix" result="effect1_dropShadow"/>
<feBlend mode="normal" in="SourceGraphic" in2="effect1_dropShadow" result="shape"/>
</filter>
</defs>
</svg>
