<svg width="200" height="100" viewBox="0 0 200 100" fill="none" xmlns="http://www.w3.org/2000/svg">
<g clip-path="url(#clip0)">
<g filter="url(#filter0_d)">
<path d="M11.2852 61V35.4062H19.1602C21.4102 35.4062 23.4199 35.916 25.1895 36.9355C26.9707 37.9434 28.3594 39.3848 29.3555 41.2598C30.3516 43.123 30.8496 45.2441 30.8496 47.623V48.8008C30.8496 51.1797 30.3574 53.2949 29.373 55.1465C28.4004 56.998 27.0234 58.4336 25.2422 59.4531C23.4609 60.4727 21.4512 60.9883 19.2129 61H11.2852ZM16.5586 39.6777V56.7637H19.1074C21.1699 56.7637 22.7461 56.0898 23.8359 54.7422C24.9258 53.3945 25.4824 51.4668 25.5059 48.959V47.6055C25.5059 45.0039 24.9668 43.0352 23.8887 41.6992C22.8105 40.3516 21.2344 39.6777 19.1602 39.6777H16.5586ZM33.6621 54.1094C33.6621 52.9258 33.9902 51.8301 34.6465 50.8223C35.3145 49.8145 36.5332 48.6953 38.3027 47.4648C37.541 46.4453 36.9434 45.4902 36.5098 44.5996C36.0762 43.6973 35.8594 42.7598 35.8594 41.7871C35.8594 39.7949 36.4863 38.1777 37.7402 36.9355C39.0059 35.6816 40.7051 35.0547 42.8379 35.0547C44.748 35.0547 46.3125 35.623 47.5312 36.7598C48.7617 37.8965 49.377 39.3145 49.377 41.0137C49.377 43.0527 48.3457 44.8516 46.2832 46.4102L44.3145 47.834L48.7266 52.9668C49.418 51.6074 49.7637 50.1074 49.7637 48.4668H54.0879C54.0879 51.7949 53.3203 54.4902 51.7852 56.5527L55.6172 61H49.8516L48.5332 59.4883C46.6465 60.7305 44.4785 61.3516 42.0293 61.3516C39.498 61.3516 37.4707 60.6895 35.9473 59.3652C34.4238 58.0293 33.6621 56.2773 33.6621 54.1094ZM42.2754 57.2734C43.4941 57.2734 44.6484 56.9336 45.7383 56.2539L40.6934 50.418L40.3242 50.6816C39.2812 51.5723 38.7598 52.6211 38.7598 53.8281C38.7598 54.8477 39.082 55.6797 39.7266 56.3242C40.3828 56.957 41.2324 57.2734 42.2754 57.2734ZM40.4121 41.7168C40.4121 42.5957 40.9277 43.7031 41.959 45.0391L43.3125 44.1426C44.0039 43.6973 44.4785 43.2637 44.7363 42.8418C45.0059 42.4199 45.1406 41.916 45.1406 41.3301C45.1406 40.7441 44.9238 40.2344 44.4902 39.8008C44.0566 39.3672 43.5 39.1504 42.8203 39.1504C42.0938 39.1504 41.5078 39.3848 41.0625 39.8535C40.6289 40.3223 40.4121 40.9434 40.4121 41.7168ZM66.3398 50.7344L63.5977 53.6875V61H58.3242V35.4062H63.5977V47.0078L65.918 43.8262L72.4395 35.4062H78.9258L69.8379 46.7793L79.1895 61H72.9141L66.3398 50.7344ZM90.1406 61V35.4062H98.0156C100.266 35.4062 102.275 35.916 104.045 36.9355C105.826 37.9434 107.215 39.3848 108.211 41.2598C109.207 43.123 109.705 45.2441 109.705 47.623V48.8008C109.705 51.1797 109.213 53.2949 108.229 55.1465C107.256 56.998 105.879 58.4336 104.098 59.4531C102.316 60.4727 100.307 60.9883 98.0684 61H90.1406ZM95.4141 39.6777V56.7637H97.9629C100.025 56.7637 101.602 56.0898 102.691 54.7422C103.781 53.3945 104.338 51.4668 104.361 48.959V47.6055C104.361 45.0039 103.822 43.0352 102.744 41.6992C101.666 40.3516 100.09 39.6777 98.0156 39.6777H95.4141ZM123.908 46.7441C123.217 46.6504 122.607 46.6035 122.08 46.6035C120.158 46.6035 118.898 47.2539 118.301 48.5547V61H113.221V41.9805H118.02L118.16 44.248C119.18 42.502 120.592 41.6289 122.396 41.6289C122.959 41.6289 123.486 41.7051 123.979 41.8574L123.908 46.7441ZM134.771 61.3516C131.982 61.3516 129.709 60.4961 127.951 58.7852C126.205 57.0742 125.332 54.7949 125.332 51.9473V51.4551C125.332 49.5449 125.701 47.8398 126.439 46.3398C127.178 44.8281 128.221 43.668 129.568 42.8594C130.928 42.0391 132.475 41.6289 134.209 41.6289C136.811 41.6289 138.855 42.4492 140.344 44.0898C141.844 45.7305 142.594 48.0566 142.594 51.0684V53.1426H130.482C130.646 54.3848 131.139 55.3809 131.959 56.1309C132.791 56.8809 133.84 57.2559 135.105 57.2559C137.062 57.2559 138.592 56.5469 139.693 55.1289L142.189 57.9238C141.428 59.002 140.396 59.8457 139.096 60.4551C137.795 61.0527 136.354 61.3516 134.771 61.3516ZM134.191 45.7422C133.184 45.7422 132.363 46.082 131.73 46.7617C131.109 47.4414 130.711 48.4141 130.535 49.6797H137.602V49.2754C137.578 48.1504 137.273 47.2832 136.688 46.6738C136.102 46.0527 135.27 45.7422 134.191 45.7422ZM156.516 61C156.281 60.543 156.111 59.9746 156.006 59.2949C154.775 60.666 153.176 61.3516 151.207 61.3516C149.344 61.3516 147.797 60.8125 146.566 59.7344C145.348 58.6562 144.738 57.2969 144.738 55.6562C144.738 53.6406 145.482 52.0938 146.971 51.0156C148.471 49.9375 150.633 49.3926 153.457 49.3809H155.795V48.291C155.795 47.4121 155.566 46.709 155.109 46.1816C154.664 45.6543 153.955 45.3906 152.982 45.3906C152.127 45.3906 151.453 45.5957 150.961 46.0059C150.48 46.416 150.24 46.9785 150.24 47.6934H145.16C145.16 46.5918 145.5 45.5723 146.18 44.6348C146.859 43.6973 147.82 42.9648 149.062 42.4375C150.305 41.8984 151.699 41.6289 153.246 41.6289C155.59 41.6289 157.447 42.2207 158.818 43.4043C160.201 44.5762 160.893 46.2285 160.893 48.3613V56.6055C160.904 58.4102 161.156 59.7754 161.648 60.7012V61H156.516ZM152.314 57.4668C153.064 57.4668 153.756 57.3027 154.389 56.9746C155.021 56.6348 155.49 56.1836 155.795 55.6211V52.3516H153.896C151.354 52.3516 150 53.2305 149.836 54.9883L149.818 55.2871C149.818 55.9199 150.041 56.4414 150.486 56.8516C150.932 57.2617 151.541 57.4668 152.314 57.4668ZM169.559 41.9805L169.717 44.1074C171.064 42.4551 172.887 41.6289 175.184 41.6289C177.633 41.6289 179.314 42.5957 180.229 44.5293C181.564 42.5957 183.469 41.6289 185.941 41.6289C188.004 41.6289 189.539 42.2324 190.547 43.4395C191.555 44.6348 192.059 46.4395 192.059 48.8535V61H186.961V48.8711C186.961 47.793 186.75 47.0078 186.328 46.5156C185.906 46.0117 185.162 45.7598 184.096 45.7598C182.572 45.7598 181.518 46.4863 180.932 47.9395L180.949 61H175.869V48.8887C175.869 47.7871 175.652 46.9902 175.219 46.498C174.785 46.0059 174.047 45.7598 173.004 45.7598C171.562 45.7598 170.52 46.3574 169.875 47.5527V61H164.795V41.9805H169.559Z" fill="white"/>
</g>
</g>
<defs>
<filter id="filter0_d" x="7.28516" y="35.0547" width="188.773" height="34.2969" filterUnits="userSpaceOnUse" color-interpolation-filters="sRGB">
<feFlood flood-opacity="0" result="BackgroundImageFix"/>
<feColorMatrix in="SourceAlpha" type="matrix" values="0 0 0 0 0 0 0 0 0 0 0 0 0 0 0 0 0 0 127 0" result="hardAlpha"/>
<feOffset dy="4"/>
<feGaussianBlur stdDeviation="2"/>
<feComposite in2="hardAlpha" operator="out"/>
<feColorMatrix type="matrix" values="0 0 0 0 0 0 0 0 0 0 0 0 0 0 0 0 0 0 0.25 0"/>
<feBlend mode="normal" in2="BackgroundImageFix" result="effect1_dropShadow"/>
<feBlend mode="normal" in="SourceGraphic" in2="effect1_dropShadow" result="shape"/>
</filter>
<clipPath id="clip0">
<rect width="200" height="100" fill="white"/>
</clipPath>
</defs>
</svg>
